<!DOCTYPE svg PUBLIC "-//W3C//DTD SVG 1.1//EN" "http://www.w3.org/Graphics/SVG/1.1/DTD/svg11.dtd">
<!-- Uploaded to: SVG Repo, www.svgrepo.com, Transformed by: SVG Repo Mixer Tools -->
<svg width="800px" height="800px" viewBox="0 -43.78 441.212 441.212" xmlns="http://www.w3.org/2000/svg" fill="#000000">
<g id="SVGRepo_bgCarrier" stroke-width="0"/>
<g id="SVGRepo_tracerCarrier" stroke-linecap="round" stroke-linejoin="round"/>
<g id="SVGRepo_iconCarrier">
<defs>
<style>.a{fill:#ffffff;}.b{fill:#211715;}.c{fill:#957f6e;}.d{fill:#0000ff;}.e{fill:#00ffff;}.f{fill:#5394cf;}.g{fill:#a0a0a0;}</style>
</defs>
<path class="a" d="M372.582,10.392c0-2.13-2.118-3.852-4.731-3.85-28.446.022-260.031.181-295.114.2-2.563,0-4.637,1.69-4.64,3.778-.039,21.18-.3,172.137-.338,193.125,4.732,0,300.543.236,305.031.236C372.77,180.3,372.61,30.236,372.582,10.392Z"/>
<path class="b" d="M379.063,5.009A4.969,4.969,0,0,0,374.131,0c-29.657.029-271.1.235-307.672.255a4.879,4.879,0,0,0-4.838,4.916c-.04,27.559-.31,173.39-.353,200.7a4.971,4.971,0,0,0,4.926,5.022c29.741.034,278.622.269,308.148.3a4.972,4.972,0,0,0,4.938-5.018C379.26,175.493,379.093,30.83,379.063,5.009ZM67.759,203.641c.04-20.988.3-171.945.338-193.125,0-2.088,2.077-3.777,4.64-3.778,35.083-.015,266.668-.174,295.114-.2,2.613,0,4.727,1.72,4.731,3.85.028,19.844.188,169.9.208,193.485C368.3,203.877,72.491,203.641,67.759,203.641Z"/>
<path class="c" d="M185.422,92.136c-4.907-.63-10.152-3.324-12.023-6.73-2.461-4.477-2.571-10.124-1.464-15.1s2.983-9.792,3.559-14.851c.293-2.57.247-5.173.644-7.729.394-2.532,1.2-23.661,16.96-28.223,3.991-1.414,7.932-2.849,12.162-2.55a37.077,37.077,0,0,1,7.1.892c5.172,1.6,9.233,3.772,12.773,7.815a31.2,31.2,0,0,1,5.594,9.244,110.958,110.958,0,0,1,6.4,32.061,36.957,36.957,0,0,1-.561,10.721c-.821,3.5-2.575,7.265-5.418,9.51-4.242,3.348-6.188,4.119-11.619,4.307l-31.522,2.527Z"/>
<path class="a" d="M184.346,51.993c4.882-4.529,15.583-14.939,16.772-16.367,5.143-1.341,9.478,1.779,12.964,4.557a29.253,29.253,0,0,1,8,10.506,37.983,37.983,0,0,1,3.068,24.738c-2.074,3.192-5.469,7.289-9.39,9.067a28.5,28.5,0,0,0,.56,4.831c.31,1.81.21,3.43,2.73,4.34.335.138,6.3,3.306,4.2,1.618a20.418,20.418,0,0,1-34.194,4.146l-3.519-4.175,2.489-.767c.611-.189,1.72-.757,1.887-.817,2.52-.91,2.421-2.531,2.738-4.344a29.066,29.066,0,0,0,.547-5.561,21.974,21.974,0,0,1-5.664-4.936,24.294,24.294,0,0,1-4.631-9.038l-.912-.141a6,6,0,0,1-2.8-1.262,9.075,9.075,0,0,1-2.348-3.081c-.051-.1-.1-.206-.15-.31a14.278,14.278,0,0,1-1.307-7.264,4.763,4.763,0,0,1,.5-1.917,3.372,3.372,0,0,1,2.425-1.612,3.59,3.59,0,0,1,2.659.673l1.175-.918C182.5,53.681,183.286,52.976,184.346,51.993Z"/>
<path class="b" d="M214.269,87.112a16.7,16.7,0,0,0,7.406-4.332,34.242,34.242,0,0,0,5.21-6.35,2.014,2.014,0,0,0-.717-2.736,2.044,2.044,0,0,0-2.736.717q-.463.709-.957,1.4-.261.364-.533.723c-.106.14-.218.277-.044.059-.106.133-.211.267-.318.4a29.273,29.273,0,0,1-2.6,2.839c-.47.446-.96.867-1.464,1.275.22-.178.045-.033-.08.059s-.234.172-.352.255q-.422.3-.862.569a16.344,16.344,0,0,1-1.56.824c-.217.1.3-.105-.055.019-.155.054-.307.114-.462.165-.308.1-.619.186-.935.259a2.017,2.017,0,0,0-1.4,2.46,2.043,2.043,0,0,0,2.46,1.4Z"/>
<path class="b" d="M182.583,53.625a5.6,5.6,0,0,0-6.98-.394c-2.156,1.6-2.425,4.365-2.218,6.861.392,4.711,2.879,10.555,8.076,11.487a2.057,2.057,0,0,0,2.46-1.4,2.017,2.017,0,0,0-1.4-2.46c-3.128-.561-4.513-3.965-5.027-6.784a11.37,11.37,0,0,1-.158-2.234,4.4,4.4,0,0,1,.275-1.879,1.522,1.522,0,0,1,2.141-.371,2.055,2.055,0,0,0,2.828,0,2.016,2.016,0,0,0,0-2.829Z"/>
<path class="b" d="M180.208,66.9a28.151,28.151,0,0,0,6.022,13.476,20.222,20.222,0,0,0,13.221,7.472,2.013,2.013,0,0,0,2-2,2.047,2.047,0,0,0-2-2c-4.316-.466-7.949-3.294-10.611-6.562a24.614,24.614,0,0,1-4.775-11.45,2.017,2.017,0,0,0-2.46-1.4,2.045,2.045,0,0,0-1.4,2.461Z"/>
<path class="b" d="M196.789,30.033a14.77,14.77,0,0,1,1.238,2.594l-.2-.478a35.86,35.86,0,0,1,1.27,3.363,2,2,0,0,0,3.858-1.063,38.281,38.281,0,0,0-1.372-3.6c-.258-.612-.521-1.224-.805-1.825a7.361,7.361,0,0,0-.535-1.008,2.127,2.127,0,0,0-1.195-.919,2,2,0,0,0-2.258,2.938Z"/>
<path class="b" d="M199.7,34.212c-1.972,2.343-4.339,4.422-6.526,6.557-3.112,3.039-6.241,6.061-9.415,9.035-.989.927-1.964,1.9-3.03,2.741a2.011,2.011,0,0,0,0,2.828,2.049,2.049,0,0,0,2.828,0c2.455-1.938,4.661-4.267,6.916-6.427,3.128-3,6.241-6.011,9.308-9.071.927-.924,1.9-1.832,2.748-2.835a2.054,2.054,0,0,0,0-2.828,2.017,2.017,0,0,0-2.829,0Z"/>
<path class="b" d="M201.649,37.555c3.6-.86,6.834.923,9.661,3a27.544,27.544,0,0,1,7.6,8.386,37.189,37.189,0,0,1,4.946,22.282,31.983,31.983,0,0,1-4.21,12.685c-1.29,2.233,2.165,4.249,3.454,2.019,8.961-15.514,5.282-37.413-9.165-48.375-3.9-2.961-8.37-5.039-13.345-3.851-2.5.6-1.443,4.455,1.063,3.857Z"/>
<path class="b" d="M185.954,90.207a17.556,17.556,0,0,1-9.03-3.7c-2.468-2.137-3.4-5.511-3.61-8.675-.525-7.859,3.457-15.129,4.232-22.858.269-2.689.4-5.385.69-8.074.054-.513.107-1.026.167-1.539.035-.3.072-.6.11-.9.012-.094-.041.277.017-.122q.049-.348.1-.7a41.388,41.388,0,0,1,3.095-11.056,20.551,20.551,0,0,1,8.681-9.861,21.994,21.994,0,0,1,3.443-1.376c1.917-.644,3.8-1.353,5.77-1.838a26.493,26.493,0,0,1,10.385-.142,24.024,24.024,0,0,1,15.9,10.568,40.177,40.177,0,0,1,4.676,10.717,102.408,102.408,0,0,1,2.819,11.7c.713,3.925,1.211,7.883,1.534,11.859s.659,8.084-.1,12.019a16.483,16.483,0,0,1-4.251,8.8,15.374,15.374,0,0,1-6.815,4.017,22.067,22.067,0,0,1-4.237.448c-2.566.1-2.579,4.1,0,4a18.767,18.767,0,0,0,16.623-9.242c4.231-7.431,3.271-16.491,2.328-24.634A101.328,101.328,0,0,0,232.5,33.98c-2.852-7.192-8.113-13.359-15.28-16.459a29.66,29.66,0,0,0-5.11-1.805,35.387,35.387,0,0,0-5.343-.657,30.381,30.381,0,0,0-12.432,1.894c-2.924,1.013-5.79,1.956-8.3,3.821a23.864,23.864,0,0,0-5.473,5.74,36.376,36.376,0,0,0-5.239,13.046c-.386,1.823-.663,3.666-.886,5.516-.07.575-.13,1.152-.191,1.728-.021.2-.048.4-.065.6-.015.18-.089.53.036-.253-.082.511-.149,1.027-.209,1.542-.26,2.248-.245,4.52-.514,6.768a44.432,44.432,0,0,1-1.326,6.255c-1.116,4.14-2.489,8.227-2.825,12.529a22.243,22.243,0,0,0,2.042,11.622c1.626,3.269,4.847,5.373,8.13,6.731a21.884,21.884,0,0,0,5.376,1.469,2.068,2.068,0,0,0,2.46-1.4,2.014,2.014,0,0,0-1.4-2.461Z"/>
<path class="b" d="M213.764,84.5a34.2,34.2,0,0,0,.559,4.952,13.02,13.02,0,0,0,.81,3.395,4.431,4.431,0,0,0,1.06,1.43,6.194,6.194,0,0,0,1.024.746c.138.078.28.146.424.212q.275.123.553.235.384.159-.124-.061a7.7,7.7,0,0,0,1.093.549c.647.327,1.3.65,1.951.959a2.047,2.047,0,0,0,2.737-.717,2.026,2.026,0,0,0-.718-2.737c-1-.469-1.963-.993-2.956-1.466l-.114-.054-.478-.2c-.223-.087-.223-.085,0,.005-.117-.057-.234-.113-.347-.178-.076-.042-.488-.214-.211-.113.241.087-.015-.015-.1-.093-.066-.063-.161-.226-.245-.265.22.1.219.315.054.029-.113-.195-.087-.364.007.077-.086-.406-.24-.791-.309-1.207-.089-.536-.162-1.073-.255-1.608q-.092-.519-.175-1.04c-.023-.148-.045-.3-.067-.445-.075-.487.027.277-.022-.167-.081-.744-.134-1.488-.153-2.237a2,2,0,0,0-4,0Z"/>
<path class="b" d="M191.2,84.213c-.012.661-.042,1.322-.1,1.98-.031.336-.07.671-.111,1.006.036-.289.019-.139-.01.061-.021.144-.043.288-.066.433-.154.976-.26,2-.506,2.954-.023.087-.046.174-.073.259-.067.211-.2.31.052-.079a5.3,5.3,0,0,0-.289.515c-.1.191.313-.324.065-.1-.013.012-.259.243-.258.246-.018-.07.4-.269-.016-.008-.1.063-.207.121-.313.176-.185.095-.27.115-.028.025-.235.088-.432.168-.673.276-.138.062-.274.127-.411.191-.211.1-.423.2-.635.293-.426.2.413-.148-.007,0-.107.039-.213.079-.321.114a2,2,0,0,0,1.063,3.857,15.75,15.75,0,0,0,1.814-.764c.111-.052.223-.1.333-.157.194-.095.393-.061-.261.105a5.633,5.633,0,0,0,1.211-.523,5.253,5.253,0,0,0,2.514-3.056,20.237,20.237,0,0,0,.568-3.087,33.524,33.524,0,0,0,.459-4.72,2,2,0,0,0-4,0Z"/>
<path class="a" d="M268.139,121.211s2.269-1.5,2.508-1.662a7.3,7.3,0,0,0,2.726-3.947c.143-1.275-.056-2.578.168-3.842.368-2.086,1.823-3.789,3.222-5.38a30.275,30.275,0,0,1,4.645-4.571,5.118,5.118,0,0,1,3.056-1.208,2.262,2.262,0,0,1,2.276,2,3.442,3.442,0,0,1-1.173,2.178c-1.1,1.2-1.672,1.823-2.77,3.023q1.413.072,2.829.067c1.147-.005,5.705-1.668,7.063-2.182,1.6-.605,2.916-1.246,4.2-1.777a22.555,22.555,0,0,1,4.017-1.538,3.421,3.421,0,0,1,2.952.41,1.764,1.764,0,0,1,.893,1.364,2.329,2.329,0,0,1,1.941,1.67c.413,1.362.433,2.607-.4,3.081,1.936.971,1.087,4.043.884,4.542a5.013,5.013,0,0,1-1.422,1.752,41.4,41.4,0,0,1-19.268,9.611,9.421,9.421,0,0,0-3.8,1.284c-2.107,1.539-2.421,4.692-4.408,6.384"/>
<path class="a" d="M190.333,162.977c.583-17.909-.626-49.754-1.278-63.552a20.332,20.332,0,0,0,31.823-.431c-.646,13.556-1.886,45.885-1.3,63.983"/>
<path class="d" d="M219.581,162.977c-.682-20.941,1.086-60.934,1.545-68.856a86.831,86.831,0,0,1,16.655,8.92c3.069,2.01,4.813,3.8,5.75,7.411.891,2.483,1.273,5.165,2.274,7.585.215.52,1.52,3.416,2.379,5.608,1.467,3.791,3.456,8.538,5.066,10.938l.2.293c4.528-4.668,9.054-9.061,13.58-13.959a.589.589,0,0,1,.349-.228c.208-.019.364.177.48.35a42.455,42.455,0,0,0,11.115,11.3s.249.172.494.351a173.037,173.037,0,0,1-22.6,24.884c-1.78,1.613-3.783,3.27-6.181,3.419-3.048.189-5.648-2.1-7.654-4.4-3.706-4.253-5.688-6.782-7.888-11.974.05,4.969.52,10.388.52,17.994"/>
<path class="d" d="M190.333,162.977c.684-21-1.1-61.166-1.55-68.924a87,87,0,0,0-16.818,8.988c-3.069,2.01-6.11,4.272-8.008,7.411a28.047,28.047,0,0,0-2.123,4.757c-4.712,12.612-6.577,33.318-8.746,47.4"/>
<path class="b" d="M220.6,96.05a82.691,82.691,0,0,1,12.856,6.592,36.886,36.886,0,0,1,5.421,3.7,9.216,9.216,0,0,1,2.73,4.646c.672,2.482,4.532,1.428,3.857-1.064A13.207,13.207,0,0,0,242.215,104a32.634,32.634,0,0,0-6.1-4.41,89.659,89.659,0,0,0-14.46-7.4,2.013,2.013,0,0,0-2.46,1.4,2.048,2.048,0,0,0,1.4,2.46Z"/>
<path class="b" d="M234.969,127.749a62.235,62.235,0,0,1-1.1,9.724,44.546,44.546,0,0,0-.7,8.465c.126,5.56.49,11.107.5,16.671,0,2.574,4,2.578,4,0-.007-5.564-.37-11.111-.5-16.671-.026-1.113-.065-2.237-.017-3.35a39.865,39.865,0,0,1,.694-4.752,64.32,64.32,0,0,0,1.126-10.087c.02-2.575-3.98-2.577-4,0Z"/>
<path class="b" d="M170.521,127.749a63.016,63.016,0,0,0,1.087,9.854,40.724,40.724,0,0,1,.733,4.985c.045,1.114.009,2.237-.016,3.35-.127,5.56-.49,11.107-.5,16.671,0,2.574,4,2.578,4,0,.008-5.564.37-11.111.5-16.671a43.4,43.4,0,0,0-.665-8.231,64.019,64.019,0,0,1-1.139-9.958c-.02-2.573-4.02-2.579-4,0Z"/>
<path class="b" d="M219.126,94.121c-1.014,17.577-1.539,35.216-1.679,52.82-.043,5.345-.037,10.693.134,16.036.082,2.568,4.082,2.579,4,0-.633-19.815.229-39.723,1.092-59.52.136-3.112.274-6.225.453-9.336.149-2.571-3.852-2.563-4,0Z"/>
<path class="b" d="M186.787,94.121c1.014,17.577,1.54,35.216,1.68,52.82.043,5.345.036,10.693-.134,16.036-.083,2.575,3.917,2.572,4,0,.633-19.815-.229-39.723-1.093-59.52-.135-3.112-.273-6.225-.453-9.336-.147-2.559-4.148-2.576-4,0Z"/>
<path class="b" d="M187.644,100.843a22.3,22.3,0,0,0,34.646-.432c1.617-1.977-1.2-4.823-2.828-2.828a18.371,18.371,0,0,1-28.99.432c-1.681-1.955-4.5.885-2.828,2.828Z"/>
<path class="b" d="M188.089,92.193a92.791,92.791,0,0,0-15.631,8.146,45.95,45.95,0,0,0-7.1,5.257,20.5,20.5,0,0,0-4.83,7.455c-3.973,9.942-5.441,20.827-6.917,31.365-.825,5.886-1.55,11.786-2.45,17.661a2.064,2.064,0,0,0,1.4,2.461,2.016,2.016,0,0,0,2.461-1.4c1.58-10.312,2.663-20.7,4.551-30.962a107.075,107.075,0,0,1,3.551-14.612,25.063,25.063,0,0,1,3.238-7.12,23.459,23.459,0,0,1,5.937-5.228,91.5,91.5,0,0,1,16.858-9.169,2.063,2.063,0,0,0,1.4-2.46,2.013,2.013,0,0,0-2.46-1.4Z"/>
<path class="b" d="M170.778,127.749a62.777,62.777,0,0,0,1.087,9.854,41.115,41.115,0,0,1,.733,4.985c.045,1.114.009,2.237-.017,3.35-.126,5.56-.49,11.107-.5,16.671,0,2.574,4,2.578,4,0,.007-5.564.37-11.111.5-16.671a43.4,43.4,0,0,0-.664-8.231,63.9,63.9,0,0,1-1.139-9.958c-.02-2.573-4.02-2.579-4,0Z"/>
<path class="b" d="M241.6,110.984c.842,2.427,1.246,4.99,2.194,7.382.662,1.671,1.44,3.3,2.119,4.962,1.683,4.13,3.146,8.512,5.608,12.264,1.407,2.144,4.872.142,3.454-2.019-2.348-3.579-3.726-7.727-5.349-11.659q-.625-1.516-1.284-3.022-.234-.538-.471-1.077c-.058-.135-.118-.269-.176-.4-.241-.554.2.571-.044-.109-.866-2.423-1.351-4.952-2.194-7.382s-4.7-1.378-3.857,1.064Z"/>
<path class="b" d="M250.939,140.432c2.907-3.138,5.911-6.181,8.919-9.22,2.937-2.967,5.711-6.165,8.741-9.029l-.883.514.192-.08h-1.064l.275.1-.883-.515c1.775,2.137,3.267,4.423,5.231,6.42a46.265,46.265,0,0,0,6.5,5.439c2.114,1.479,4.115-1.988,2.019-3.454a41.185,41.185,0,0,1-7.671-6.976c-1.092-1.276-1.947-2.748-3.04-4.01a2.468,2.468,0,0,0-2.426-.865,4.671,4.671,0,0,0-2.073,1.648c-5.453,5.829-11.235,11.34-16.661,17.2-1.747,1.886,1.075,4.721,2.829,2.828Z"/>
<path class="b" d="M277.738,131.679a171.169,171.169,0,0,1-17,19.48q-2.268,2.235-4.618,4.387a13.762,13.762,0,0,1-4.429,3.212c-3.68,1.271-6.683-2.881-8.721-5.293a38.627,38.627,0,0,1-6.108-9.869,2.012,2.012,0,0,0-2.736-.718,2.054,2.054,0,0,0-.718,2.737,40.237,40.237,0,0,0,6.006,9.806c2.638,3.214,5.667,7.031,10.1,7.524,4.642.516,8.2-3.377,11.27-6.274Q266,151.756,270.8,146.42c3.663-4.076,7.119-8.331,10.4-12.722a2.013,2.013,0,0,0-.718-2.736,2.047,2.047,0,0,0-2.736.717Z"/>
<path class="b" d="M284.208,109.211c1.916-2.088,5.686-4.949,4.165-8.157a4.437,4.437,0,0,0-3.77-2.441,7,7,0,0,0-4.5,1.687,33.529,33.529,0,0,0-6.783,7.16,9.668,9.668,0,0,0-1.8,4.415c-.163,1.28.233,2.939-.363,4.07-.923,1.75-2.388,2.453-4.029,3.539-2.137,1.414-.136,4.879,2.019,3.453a17.9,17.9,0,0,0,4.364-3.393,7.6,7.6,0,0,0,1.895-4.325c.116-1.69-.144-3.22.736-4.757a22.73,22.73,0,0,1,3-3.755,20.125,20.125,0,0,1,3.691-3.459c.412-.272,1.117-.789,1.656-.638a1.3,1.3,0,0,1,.318.184c-.248-.155.107-.2-.163-.035a5.935,5.935,0,0,0-.755.889l-.7.762-1.809,1.972c-1.738,1.894,1.084,4.731,2.828,2.829Z"/>
<path class="b" d="M281.9,109.742a16.731,16.731,0,0,0,5.657-.22c1.634-.437,3.234-1.016,4.821-1.6,1.919-.7,3.776-1.549,5.655-2.348a22.518,22.518,0,0,1,3.02-1.185,2.685,2.685,0,0,1,1.276-.148c.419.1.5.5.427-.1a2.065,2.065,0,0,0,2,2,2.012,2.012,0,0,0,2-2c-.382-2.981-3.24-4.266-5.989-3.78-2.592.457-5.05,1.92-7.457,2.934-1.814.764-3.693,1.413-5.569,2-.414.129-.829.256-1.247.368-.211.056-.423.106-.635.157-.066.016-.57.088-.234.054s-.347-.011-.415-.011q-.553,0-1.105-.007c-.736-.015-1.47-.059-2.2-.116-2.567-.2-2.554,3.8,0,4Z"/>
<path class="b" d="M304.753,106.141c.068,0,.134.008.2.017l-.532-.071a1.955,1.955,0,0,1,.384.108l-.478-.2a2.311,2.311,0,0,1,.459.267l-.405-.312a2.851,2.851,0,0,1,.468.47l-.313-.405a2.911,2.911,0,0,1,.351.594l-.2-.478a5.392,5.392,0,0,1,.32,1.3l-.071-.532a3.806,3.806,0,0,1,.015.886l.072-.532a2.155,2.155,0,0,1-.132.512l.2-.478a1.605,1.605,0,0,1-.161.282l.313-.405a1.393,1.393,0,0,1-.226.228l.405-.312a1.565,1.565,0,0,1-.138.091,2.077,2.077,0,0,0-.919,1.2,2,2,0,0,0,2.938,2.258,3.311,3.311,0,0,0,1.567-2.247,6.547,6.547,0,0,0-.149-2.735,4.4,4.4,0,0,0-3.969-3.5,2.014,2.014,0,0,0-2,2,2.042,2.042,0,0,0,2,2Z"/>
<path class="b" d="M305.285,110.619c.5.292.243,1.406.1,1.866-.331,1.042-2,2.15-2.969,2.9a39.139,39.139,0,0,1-9.243,5.328A40.781,40.781,0,0,1,288,122.4a31.913,31.913,0,0,0-5.27,1.373,7.608,7.608,0,0,0-3.464,3.358c-.755,1.338-1.243,2.858-2.4,3.917-1.9,1.741.931,4.564,2.828,2.828a15.323,15.323,0,0,0,2.864-4.425,4.638,4.638,0,0,1,1.475-1.868,7.64,7.64,0,0,1,2.591-.781,44.858,44.858,0,0,0,11.891-4.194,41.477,41.477,0,0,0,5.324-3.326,19.589,19.589,0,0,0,4.7-4.187c1.64-2.386,1.4-6.391-1.231-7.933-2.225-1.305-4.241,2.151-2.019,3.454Z"/>
<path class="b" d="M291.731,116.485a89.975,89.975,0,0,0,9.81-4.6,2,2,0,0,0-2.019-3.454c-1.464.835-2.955,1.617-4.487,2.319-.706.323-1.418.631-2.132.935l-.267.113c-.259.11.332-.139.067-.028l-.641.27-1.394.585a2.2,2.2,0,0,0-1.195.919,2.04,2.04,0,0,0-.2,1.541,2.019,2.019,0,0,0,2.46,1.4Z"/>
<path class="b" d="M280.8,119.1a7.084,7.084,0,0,1,.932-.2l-.532.071a7.011,7.011,0,0,1,1.743,0l-.532-.071a6.853,6.853,0,0,1,1.683.45l-.477-.2c.073.031.145.063.218.1a2.167,2.167,0,0,0,1.541.2,2,2,0,0,0,1.4-2.461,1.952,1.952,0,0,0-.919-1.195,9.541,9.541,0,0,0-1.6-.6,9.835,9.835,0,0,0-1.627-.254,8.275,8.275,0,0,0-2.89.306,2.075,2.075,0,0,0-1.195.919A2,2,0,0,0,280.8,119.1Z"/>
<path class="b" d="M287.029,113l3.213,5.142a2.092,2.092,0,0,0,1.195.919,2,2,0,0,0,2.259-2.938l-3.213-5.141a2.092,2.092,0,0,0-1.195-.92A2,2,0,0,0,287.029,113Z"/>
<path class="b" d="M200.5,75.013a10.431,10.431,0,0,0,5.017,1.177,8.332,8.332,0,0,0,5.221-1.608,1.991,1.991,0,0,0,.586-1.414,2.036,2.036,0,0,0-.586-1.414,2.01,2.01,0,0,0-1.414-.586,2.343,2.343,0,0,0-1.414.586c.7-.546.081-.08-.135.033-.17.089-.578.219.087-.02-.132.047-.26.1-.394.143-.362.116-.732.163-1.1.251.165-.039.44-.052.109-.02-.108.011-.216.02-.325.027q-.39.025-.782.022-.351,0-.7-.025c-.107-.008-.214-.016-.321-.027-.2-.02-.444-.141.058.012-.332-.1-.692-.128-1.028-.228-.144-.043-.285-.095-.427-.144-.411-.141.466.218.091.042q-.264-.124-.522-.261a2,2,0,1,0-2.019,3.454Z"/>
<path class="b" d="M204.138,63.668a21.6,21.6,0,0,1,.509,2.33l-.071-.531a1.5,1.5,0,0,1,.009.321l.071-.531a.865.865,0,0,1-.035.144l.2-.477a.6.6,0,0,1-.051.093l.313-.405a.539.539,0,0,1-.076.075l.4-.313a1.409,1.409,0,0,1-.184.1l.478-.2a1.319,1.319,0,0,1-.311.091l.531-.071a1.3,1.3,0,0,1-.292,0l.532.071c-.11-.015-.218-.042-.328-.056a2.246,2.246,0,0,0-1.542.2,2,2,0,0,0-.717,2.737l.313.4a1.992,1.992,0,0,0,.882.515c.322.043.635.123.963.137a3.216,3.216,0,0,0,1.51-.372A2.357,2.357,0,0,0,208.5,66.4a3.492,3.492,0,0,0-.012-1.559c-.126-.751-.3-1.495-.493-2.232a2.064,2.064,0,0,0-.919-1.2,2,2,0,0,0-2.737.718,2.1,2.1,0,0,0-.2,1.541Z"/>
<path class="b" d="M192.591,56.854c-.389,1.265-.135,4.174,2.261,4.422,3.167-.019,3.335-3.537,2.269-5.191C196.248,54.731,193.682,54.168,192.591,56.854Z"/>
<path class="b" d="M217.951,56.854c.39,1.265.136,4.174-2.26,4.422-3.167-.019-3.335-3.537-2.269-5.191C214.294,54.731,216.861,54.168,217.951,56.854Z"/>
<path class="a" d="M140.581,156.638c13.354,0,201.51-.873,212.111-.873V194.6H140.581Z"/>
<path class="e" d="M107.293,44.462c0-4.939-3.141-9.572-8.467-9.727.864-.23,4.748-4.059,4.748-8.721a9.665,9.665,0,0,0-19.249,0c0,4.662,3.884,8.491,4.748,8.721-3.61-.08-8.008,4.788-8.008,9.727"/>
<path class="e" d="M107.293,95.129c0-4.939-3.141-9.572-8.467-9.727.864-.23,4.748-4.06,4.748-8.721a9.665,9.665,0,0,0-19.249,0c0,4.661,3.884,8.491,4.748,8.721-3.61-.081-8.008,4.788-8.008,9.727"/>
<path class="e" d="M81.065,144.314c0-4.939,4.4-9.808,8.008-9.727-.864-.23-4.748-4.059-4.748-8.721a9.665,9.665,0,0,1,19.249,0c0,4.662-3.884,8.491-4.748,8.721,5.326.155,8.467,4.788,8.467,9.727"/>
<path class="b" d="M66.179,157.289h54.667c2.574,0,2.578-4,0-4H66.179c-2.574,0-2.578,4,0,4Z"/>
<path class="b" d="M66.179,107.955h54.667c2.574,0,2.578-4,0-4H66.179c-2.574,0-2.578,4,0,4Z"/>
<path class="b" d="M66.179,58.622H120.4c2.573,0,2.578-4,0-4H66.179c-2.574,0-2.578,4,0,4Z"/>
<path class="b" d="M301.639,82.147c0-4.87-.15-9.74-.152-14.611l-2,2h10.576l-2-2c0,4.871.261,9.74.266,14.611,0,2.574,4,2.579,4,0,0-4.871-.261-9.74-.266-14.611a2.03,2.03,0,0,0-2-2H299.487a2.029,2.029,0,0,0-2,2c0,4.871.149,9.741.152,14.611,0,2.574,4,2.579,4,0Z"/>
<path class="b" d="M318.627,82.147c0-9.023-.15-18.046-.152-27.069l-2,2H327.05l-2-2c.007,7.089.26,14.176.266,21.266,0,2.573,4,2.578,4,0-.006-7.09-.259-14.177-.266-21.266a2.028,2.028,0,0,0-2-2H316.475a2.028,2.028,0,0,0-2,2c0,9.023.148,18.046.152,27.069,0,2.574,4,2.579,4,0Z"/>
<path class="f" d="M335.3,82.147c0-2.558-.152-37.507-.152-41.6h10.576c0,2.876.266,38.443.266,41.6"/>
<path class="f" d="M277.915,37.042c3.5,0,9.862-.116,13.255-.116.012-4.131.023-9.872.035-14,9.75,0,14.774,4.316,14.774,13.962,0,6.973-2.93,14.208-13.483,14.208C282.983,51.094,277.915,45.116,277.915,37.042Z"/>
<path class="b" d="M337.3,82.147c0-11.711-.092-23.424-.133-35.135-.008-2.157-.019-4.313-.019-6.469l-2,2h10.576l-2-2c0,11.84.157,23.682.233,35.522.013,2.027.032,4.055.033,6.082,0,2.574,4,2.578,4,0,0-11.889-.157-23.779-.234-35.668-.012-1.979-.032-3.958-.032-5.936a2.029,2.029,0,0,0-2-2H335.151a2.029,2.029,0,0,0-2,2c0,11.975.088,23.95.133,35.926.007,1.892.018,3.785.019,5.678,0,2.574,4,2.578,4,0Z"/>
<path class="b" d="M284.5,27.793c-2.831,0-5.663.059-8.5.091l2,2c0-.609.034-1.211.086-1.817.027-.222.019-.172-.022.15.012-.083.025-.165.039-.248.021-.121.045-.241.071-.362.051-.234.112-.466.185-.7a1.987,1.987,0,0,0,.159-.446l-.111.259q.048-.108.1-.216a7.167,7.167,0,0,1,.348-.638q.132-.213.277-.419l.075-.105q.191-.255-.072.092a8,8,0,0,0,.574-.653,8.059,8.059,0,0,1,.595-.559c.046-.04.093-.078.14-.116q.177-.143-.167.129a1.735,1.735,0,0,0,.338-.234,6.486,6.486,0,0,1,.652-.373c.1-.049.22-.088.313-.146-.468.292-.174.075,0,.013a8.949,8.949,0,0,1,1.506-.361q.234-.034-.221.03c.085-.01.17-.018.255-.026.13-.013.26-.022.39-.031.319-.019.638-.026.958-.028l-1.727-3.009a4.051,4.051,0,0,0-.283,1.814c0,.693,0,1.385,0,2.078,0,1.591,0,3.182.018,4.773a4.635,4.635,0,0,0,.289,2.039,2.009,2.009,0,0,0,2.737.717,2.056,2.056,0,0,0,.717-2.736,9.1,9.1,0,0,0,.27.975c0-.019,0-.038,0-.057,0-.062,0-.125,0-.187q0-.318-.007-.636-.009-1.024-.012-2.051-.009-2.284-.007-4.569c0-.261,0-.521,0-.782.006-.652.2-.382-.265.641a2.091,2.091,0,0,0,0-2.019,2.014,2.014,0,0,0-1.727-.991,12.125,12.125,0,0,0-4.006.578,9.289,9.289,0,0,0-3.587,2.3,10.124,10.124,0,0,0-2.321,3.722,13.012,13.012,0,0,0-.558,4.2,2.026,2.026,0,0,0,2,2c2.832-.032,5.664-.09,8.5-.091a2,2,0,0,0,0-4Z"/>
<path class="b" d="M277.915,39.042c4.419,0,8.837-.113,13.255-.116a2.03,2.03,0,0,0,2-2q.019-7,.035-14l-2,2c3.685.019,7.78.6,10.31,3.472,2.431,2.757,2.7,7.108,2.364,10.663-.325,3.412-1.77,6.816-4.851,8.571-3.692,2.1-9.225,2.017-13,.162-4.189-2.056-6.072-6.23-6.11-10.75-.022-2.572-4.022-2.579-4,0,.044,5.268,2.106,10.307,6.566,13.322,4.563,3.084,11.374,3.612,16.472,1.681a13.743,13.743,0,0,0,8.586-10.578c.9-4.617.682-10.154-1.92-14.221-3.135-4.9-8.928-6.293-14.414-6.322a2.028,2.028,0,0,0-2,2q-.019,7-.035,14l2-2c-4.418,0-8.836.113-13.255.116C275.341,35.044,275.337,39.044,277.915,39.042Z"/>
<path class="b" d="M119.82,4.714V206.047c0,2.574,4,2.578,4,0V4.714c0-2.574-4-2.578-4,0Z"/>
<path class="b" d="M273.407,311.317q-8.817,0-17.634.023-15.318.027-30.636.058l-36.4.069q-17.7.032-35.4.06-13.584.02-27.167.029h-2.454c-2.574,0-2.578,4,0,4q12.823,0,25.646-.024,17.379-.024,34.759-.057,18.318-.033,36.637-.069l31.758-.06q9.819-.017,19.639-.029h1.245c2.573,0,2.578-4,0-4Z"/>
<path class="b" d="M140.581,157.926c2.852,0,5.7-.014,8.556-.024q8.324-.028,16.647-.063l22.625-.094,26.833-.115,28.837-.125,29-.127,27.321-.118,23.435-.1q8.892-.037,17.785-.072,5.007-.02,10.013-.034h1.06c2.574,0,2.578-4,0-4-2.609,0-5.219.013-7.829.023q-8.038.03-16.075.064-11.108.045-22.213.093L280,153.348l-28.74.126L222.2,153.6l-27.539.119q-11.9.05-23.808.1-9.159.037-18.318.072-5.351.019-10.7.034l-1.253,0c-2.574,0-2.578,4,0,4Z"/>
<path class="a" d="M279.571,167.528c-7.208.782-20.318,2.552-27.044,3.633a.891.891,0,0,0-.4,1.591c4.973,3.768,16.786,12.224,21.864,15.571a4.825,4.825,0,0,0,3.423.736c11.8-1.873,39.189-6.063,48.545-7.562a3.106,3.106,0,0,0,2.549-2.409c2.69-12.344,6.463-32.475,7.716-41.345a.994.994,0,0,0-1.07-1.127c-9.437.747-37.761,3.746-47.912,4.669a3.045,3.045,0,0,0-2.72,2.458c-2.769,14.328-5.942,30.774-8.9,44.7"/>
<path class="b" d="M279.571,165.528q-13.562,1.479-27.06,3.622a2.932,2.932,0,0,0-1.3,5.394c1.387,1.057,2.8,2.086,4.205,3.115q5.385,3.936,10.844,7.768,2.475,1.74,4.974,3.446c1.917,1.3,3.748,2.461,6.187,2.186,3.548-.4,7.086-1.1,10.613-1.651q12.98-2.019,25.959-4.023,5.216-.81,10.431-1.63c1.727-.273,3.421-.445,4.722-1.772,1.594-1.626,1.738-4.388,2.183-6.516q2.964-14.189,5.432-28.482.5-2.9.963-5.811c.3-1.932,1.131-4.365-.568-5.844-1.276-1.11-3.24-.615-4.781-.478q-2.4.211-4.792.442c-8.343.793-16.68,1.648-25.019,2.488q-5.654.569-11.309,1.124c-1.423.138-2.854.236-4.272.415-2.9.364-4.123,2.548-4.63,5.173-2.278,11.782-4.553,23.566-6.962,35.322q-.831,4.052-1.687,8.1c-.532,2.511,3.323,3.584,3.857,1.063,1.694-7.992,3.3-16,4.876-24.017q1.219-6.2,2.419-12.4L286,146.634c.21-1.089.149-3.087,1.427-3.365a55.4,55.4,0,0,1,6.239-.6q4.05-.4,8.1-.808,8.964-.9,17.926-1.8,4.477-.444,8.957-.87,1.807-.169,3.616-.332c.785-.069,2.238-.464,2.944-.188l-.883-.514c-.38-.3.069-1.135-.1-.393-.044.188-.057.39-.086.581q-.083.556-.169,1.113-.2,1.3-.413,2.6-.495,3.023-1.029,6.038-1.248,7.088-2.619,14.152-1.319,6.832-2.748,13.645a12.536,12.536,0,0,1-.665,3c-.356.667-1.094.683-1.763.789q-2.049.327-4.1.648-11.918,1.868-23.841,3.7-6.113.946-12.225,1.9-2.575.4-5.149.806c-1.765.277-3.17.673-4.764-.372-3.7-2.425-7.3-5.024-10.9-7.6q-2.913-2.081-5.806-4.187-1.323-.964-2.641-1.938-.525-.39-1.05-.781l-.483-.361-.276-.208q-.667-.562.335.837l-.514.882c-.176.227-.267.067.134.02.224-.026.447-.071.67-.1q.718-.112,1.439-.222,1.607-.243,3.214-.476,3.626-.525,7.257-1.013c4.509-.609,9.023-1.191,13.547-1.684a2.06,2.06,0,0,0,2-2,2.013,2.013,0,0,0-2-2Z"/>
<path class="b" d="M232.028,165.541c1.782,9.79,4.067,19.481,6.135,29.213l1.928-2.532c-14.657,0-29.317-.248-43.974-.36-3.129-.024-6.259-.051-9.388-.051l1.928,2.531c2.829-9.595,5.056-19.359,7.156-29.136l-1.929,1.468c10.6.008,21.193.208,31.789.293,2.761.022,5.522.041,8.284.042,2.574,0,2.578-4,0-4-11.059,0-22.117-.191-33.175-.291-2.3-.021-4.6-.042-6.9-.044a2.028,2.028,0,0,0-1.929,1.469c-2.1,9.776-4.326,19.541-7.155,29.136a2.02,2.02,0,0,0,1.929,2.532c14.94,0,29.881.24,44.82.36,2.847.023,5.695.051,8.542.051a2.026,2.026,0,0,0,1.929-2.531c-2.068-9.733-4.352-19.423-6.135-29.214-.46-2.528-4.316-1.457-3.857,1.064Z"/>
<path class="b" d="M285.383,181.04c12.012-1.651,24-3.487,36.024-5.04a2.065,2.065,0,0,0,2-2,2.012,2.012,0,0,0-2-2c-12.381,1.6-24.721,3.483-37.088,5.183a2.011,2.011,0,0,0-1.4,2.46,2.054,2.054,0,0,0,2.46,1.4Z"/>
<path class="b" d="M289.66,84.522c8.206,0,16.412-.078,24.617-.127q16.877-.1,33.753-.2c3.236-.019,6.473-.046,9.71-.047,2.574,0,2.578-4,0-4-7.749,0-15.5.08-23.247.127q-17.067.1-34.133.2c-3.567.02-7.133.046-10.7.047-2.574,0-2.578,4,0,4Z"/>
<path class="a" d="M315.939,305.141c-2.561-3.831,1.788-13.112-5.695-11.518-2.136.456-1.921,2.878-4.156,2.244-1.109-.314-1.8-2.916-2.551-3.672-3.258-3.277-4-3.4-8.324-2.071-5.147,1.587-12.88,5.289-13.967,10.874-1.28,6.569,3.291,13.293,9.319,15.018l6.318,4.513,19.778-10.3Z"/>
<path class="a" d="M300.161,316.487q-.378.4-.757.841c-2.261,2.612-6.059,6.25-5.447,9.852.532,3.125,5.67,7.88,7.847,10.052,9.91,9.886,25.337,19.853,39.275,10.977,1.145-.73,3-2.975,5.037-5.77,6.181,0,14.26,0,14.26,0q.554-4.237,1.364-8.436c.517-2.679,1.235-5.551,3.365-7.281s5.089-1.875,7.839-1.936q27.289-.6,54.585.914c-.51-4.942-1.068-9.332-1.533-11.8-1.981-10.544-12.6-33.063-24.034-36.816-8.1-2.145-21.479-1.549-29.343-1.43-10.868,0-23.506,5.594-29.455,14.3-3.107,4.546-5.677,8.551-8.742,13.158-2.651,3.985-6.751,7.445-9.8,11.082L319.2,310.05C311.2,310.05,305.619,310.678,300.161,316.487Z"/>
<path class="a" d="M436.692,342.268l2.263-9.865a6.473,6.473,0,0,0,.18-2.952c-.568-1.886-2.675-3-4.368-3.283-.518-.061-1.041-.1-1.554-.131q-30.1-1.918-60.269-1.253c-2.75.061-5.722.216-7.839,1.936s-2.848,4.6-3.365,7.281q-.81,4.2-1.364,8.436Z"/>
<path class="a" d="M378.024,227.777a52.691,52.691,0,0,1-4.694-4.662,60.432,60.432,0,0,1-7.856-11.156l-3.786,1.967c-4.051-1.838-7.4-7.3-7.569-12.149a13.968,13.968,0,0,0-1.662,2.079,25.6,25.6,0,0,0-3.4,9.353c-.637,3.719-.64,6.3-3.068,9.4a34.077,34.077,0,0,1-5.055,5.509c-3.637,3.2-1.343,6.835,2.265,8.2-2.353,8.133-1.442,17.454.207,20.382a15.184,15.184,0,0,0,3.855,4.484c2.431,1.765,11.644,4.111,14.741,4.02l.4.455c1.346,1.532,1.413,6.554,1.531,8.612l.14,2.437a36.665,36.665,0,0,1,8.554-1.061c9.63-.146,27.529-1.007,33.881,3.327a37.009,37.009,0,0,1-2.669-3.924,30.821,30.821,0,0,1-3.571-12.4c.015-.569.064-1.242.136-1.967l-.221-.044c-3.574-.715-9.4-2.747-11.582-5.109-3.423-3.7-6.5-13.2-3.267-11.927a11.137,11.137,0,0,0,2.042-3.523c1.757-5.174-.872-8.592-4.81-8.833A43.156,43.156,0,0,1,378.024,227.777Z"/>
<path class="b" d="M372.619,273.649a41.292,41.292,0,0,0-24.092,8.054,38.233,38.233,0,0,0-8.82,9.79c-1.484,2.211-2.946,4.438-4.41,6.664a65.28,65.28,0,0,1-4.222,6.093c-3.36,4.026-7.525,7.386-10.34,11.858-1.375,2.185,2.085,4.194,3.454,2.019,2.329-3.7,5.742-6.579,8.64-9.812,3.257-3.632,5.742-7.883,8.425-11.939,2.41-3.645,4.664-7.3,8.006-10.174a34.816,34.816,0,0,1,10.259-5.992,37.388,37.388,0,0,1,13.1-2.561c2.573-.014,2.579-4.014,0-4Z"/>
<path class="b" d="M319.2,308.05c-4.327.006-8.835.127-12.9,1.769-4.249,1.715-7.252,4.832-10.2,8.229-3.019,3.48-5.618,7.657-3.071,12.153,1.954,3.449,5.1,6.235,7.9,8.979,7.059,6.9,15.906,13.212,25.973,14.325a23.506,23.506,0,0,0,14.429-3.108c2.459-1.441,4.154-3.785,5.833-6.032,2.35-3.143,4.517-6.425,6.62-9.736,1.466-2.309,2.992-4.628,4.243-7.063,1.175-2.286-2.275-4.312-3.454-2.019a123.034,123.034,0,0,1-8.449,13.428,54.88,54.88,0,0,1-4.946,6.459c-.313.334-.639.648-.979.954-.373.337.286-.165-.086.063-.514.316-1.026.632-1.558.918a19.187,19.187,0,0,1-6.538,2.131c-8.933,1.167-17.609-3.939-24.192-9.459a92.02,92.02,0,0,1-8.344-8,17.8,17.8,0,0,1-3.267-4.356c-.7-1.512-.037-2.99.8-4.315a37.948,37.948,0,0,1,4.6-5.517A18.071,18.071,0,0,1,306.692,314c3.833-1.913,8.323-1.939,12.508-1.945,2.574,0,2.579-4,0-4Z"/>
<path class="b" d="M401.43,279.007a18.944,18.944,0,0,1,7.107,5.011,49.8,49.8,0,0,1,6.568,8.768,72.691,72.691,0,0,1,8.462,19.413,91.824,91.824,0,0,1,1.942,13.314,2.058,2.058,0,0,0,2,2,2.014,2.014,0,0,0,2-2,112.66,112.66,0,0,0-1.833-13.34,60.041,60.041,0,0,0-3.207-9.645c-3.1-7.454-7.07-14.826-12.583-20.788a23.388,23.388,0,0,0-9.392-6.59c-2.444-.828-3.492,3.034-1.064,3.857Z"/>
<path class="b" d="M317.666,304.132a4.89,4.89,0,0,1-.6-1.947c-.1-1.044-.078-2.1-.085-3.142-.012-1.959-.034-4.163-1.27-5.792-1.5-1.978-4.378-2.2-6.576-1.366a4.935,4.935,0,0,0-1.808,1.22,11.051,11.051,0,0,0-.771.916c-.008-.027.316-.139.227,0,.993-1.515.126.233.147.075.009-.067-.2-.3-.232-.369-.291-.625-.63-1.271-.975-1.869-1.229-2.129-3.858-4.279-6.37-4.5-2.586-.225-5.469,1-7.818,1.968-5.136,2.106-11.376,5.641-12.31,11.679a15.6,15.6,0,0,0,10.806,16.94c2.469.747,3.525-3.112,1.063-3.857a11.59,11.59,0,0,1-8.008-12.013c.57-4.774,6.131-7.577,10.108-9.131,1.082-.422,2.183-.791,3.3-1.116a9.471,9.471,0,0,1,2.647-.491c1.827.237,3.1,2.608,3.957,4.143a4.307,4.307,0,0,0,2.777,2.39,3.77,3.77,0,0,0,3.595-1.131c.577-.6.78-1.132,1.65-1.258a4.715,4.715,0,0,1,.76-.038c.687.014-.286-.079.317.031a.455.455,0,0,1,.321.153c.35.378-.175-.333.08.126q.151.3.018-.008c.043.114.082.228.116.345.046.185.093.369.131.557.085.415-.008-.206.041.275.1.976.077,1.962.083,2.942.012,2.121.056,4.435,1.226,6.288,1.371,2.171,4.833.166,3.454-2.019Z"/>
<path class="b" d="M372.619,277.649c4.8-.075,9.59-.225,14.387-.138a62.264,62.264,0,0,1,14.424,1.5c2.494.645,3.558-3.212,1.064-3.857a65.962,65.962,0,0,0-15.1-1.631c-4.927-.1-9.852.053-14.778.13-2.571.041-2.579,4.041,0,4Z"/>
<path class="b" d="M350.587,221.583c-.928,1.322-1.729,4.8.956,5.983,3.679,1.167,5.2-2.855,4.585-5.176C355.626,220.49,352.862,218.872,350.587,221.583Z"/>
<path class="b" d="M343.748,234.4c-1.115-.447-2.655-1.465-2.656-2.825,0-1.606,2.214-2.865,3.22-3.9,2.664-2.741,5.146-5.868,5.964-9.674.871-4.057,1.147-8.076,3.141-11.818,1.91-3.582,5.538-5.677,7.687-9.09,1.375-2.185-2.084-4.194-3.454-2.019-1.827,2.9-4.906,4.749-6.815,7.613a26.845,26.845,0,0,0-3.811,10.6,40.73,40.73,0,0,1-.852,4.654,12.034,12.034,0,0,1-2.384,4.245,34.321,34.321,0,0,1-3.07,3.419c-1.327,1.267-2.709,2.394-3.328,4.189-1.362,3.945,1.955,7.123,5.294,8.463a2.014,2.014,0,0,0,2.461-1.4,2.049,2.049,0,0,0-1.4-2.46Z"/>
<path class="b" d="M341.149,236.194a41.706,41.706,0,0,0-1.364,11.864,24.416,24.416,0,0,0,1.535,8.9,13.658,13.658,0,0,0,6.046,6.6,38.089,38.089,0,0,0,7.612,2.554c2.562.627,5.383,1.355,8.031.984a2.012,2.012,0,0,0,1.4-2.46,2.052,2.052,0,0,0-2.46-1.4c.647-.091-.057-.021-.2-.028-.253-.012-.506-.017-.759-.037a15.46,15.46,0,0,1-1.631-.218c-1.575-.271-3.136-.634-4.679-1.05-2.5-.675-5.289-1.293-7.175-3.125-2.482-2.411-3.254-4.827-3.576-8.253a37.857,37.857,0,0,1,1.075-13.268c.665-2.489-3.192-3.552-3.857-1.063Z"/>
<path class="b" d="M342.064,246.538a8.285,8.285,0,0,0,2.862,1.214,11.491,11.491,0,0,0,3.175.286,2.114,2.114,0,0,0,1.414-.586,2,2,0,0,0,0-2.829,2,2,0,0,0-1.414-.585,10.024,10.024,0,0,1-1.841-.069l.532.071a8.413,8.413,0,0,1-2.1-.561l.478.2a6.25,6.25,0,0,1-1.084-.6,2,2,0,0,0-2.938,2.258,2.248,2.248,0,0,0,.919,1.2Z"/>
<path class="b" d="M353.056,199.1a6.821,6.821,0,0,0-1.269.935c-.391.333-.761.692-1.121,1.058a30.934,30.934,0,0,0-2.478,2.874,7.174,7.174,0,0,0-.734,1.093,2.12,2.12,0,0,0-.2,1.541,2,2,0,0,0,3.656.478,7.444,7.444,0,0,1,.768-1.138l-.313.405c.553-.712,1.148-1.392,1.768-2.047a16.414,16.414,0,0,1,1.808-1.7l-.405.313a3.594,3.594,0,0,1,.541-.358,2.016,2.016,0,0,0,.718-2.737,2.048,2.048,0,0,0-2.737-.717Z"/>
<path class="g" d="M373.33,223.115a60.432,60.432,0,0,1-7.856-11.156l-3.786,1.967c-4.5-2.043-8.134-8.564-7.518-13.737a69.839,69.839,0,0,1,4.035-5.87,27.746,27.746,0,0,1,15.8-9.182c17.173-2.85,42.454,7.53,39.387,24.059,7.072-1.094,10.484,17.464,2.153,32.38,4.55.6,8.566,2.186,11.23,5.469,3.333,4.106,3.483,9.782,1.546,14.425-2.948,7.07-8.168,17.068-3.455,22.959-3.606,3.156-11.31-.064-13.881-1.525-3.269-1.857-5.247-4.728-7.15-7.852a30.821,30.821,0,0,1-3.571-12.4c.015-.569.064-1.242.136-1.967l-.221-.044c-3.574-.715-9.4-2.747-11.582-5.109-3.423-3.7-6.5-13.2-3.267-11.927a11.137,11.137,0,0,0,2.042-3.523c1.757-5.174-.872-8.592-4.81-8.833A48.048,48.048,0,0,1,373.33,223.115Z"/>
<path class="b" d="M360.98,267.075c.192.226-.291-.454-.142-.183.029.054.067.105.1.158.074.127.126.266.2.394-.338-.59-.067-.151,0,.062.055.168.1.338.149.509.1.371.174.748.239,1.127.034.2.061.4.093.6.04.25-.061-.5-.02-.142.013.113.027.225.039.337.161,1.441.2,2.889.286,4.335a2,2,0,0,0,4,0c-.088-1.559-.133-3.12-.325-4.672-.233-1.883-.523-3.859-1.792-5.354a2.008,2.008,0,0,0-2.828,0,2.052,2.052,0,0,0,0,2.828Z"/>
<path class="b" d="M378.763,234.1a7.951,7.951,0,0,1,1.578-.619,8.935,8.935,0,0,1,.889-.2c.385-.064-.08-.012.333-.034.279-.015.556-.024.836-.013.135,0,.27.014.4.027q-.3-.048.057.012a6.376,6.376,0,0,1,.655.159c.081.025.666.262.311.1a5.632,5.632,0,0,1,.642.352c.1.066.2.134.3.206-.168-.126-.164-.116.012.032.131.127.257.252.378.388q.222.264.025.023c.07.1.137.2.2.308a3.952,3.952,0,0,1,.541,2.278c-.042,2.459-1.537,4.683-3.3,6.5a25.526,25.526,0,0,1-6.033,4.694c-2.242,1.264-.228,4.72,2.019,3.454a27.955,27.955,0,0,0,6.031-4.507,17.177,17.177,0,0,0,4.746-6.908,9.629,9.629,0,0,0-.285-7.033,7.3,7.3,0,0,0-4.61-3.766,10.769,10.769,0,0,0-7.744,1.1,2,2,0,1,0,2.019,3.454Z"/>
<path class="b" d="M382.162,246.692a23.356,23.356,0,0,0,2.261,6.175,14.592,14.592,0,0,0,3.678,4.9,22.206,22.206,0,0,0,5.787,3.083,35.3,35.3,0,0,0,5.755,1.714,2.049,2.049,0,0,0,2.46-1.4,2.019,2.019,0,0,0-1.4-2.46,25.219,25.219,0,0,1-10.03-3.967c.293.218-.159-.136-.177-.151-.13-.114-.257-.233-.378-.356-.135-.138-.263-.282-.388-.429.019.023-.388-.494-.227-.28a18.5,18.5,0,0,1-1.63-2.677,19.349,19.349,0,0,1-1.858-5.219,2.018,2.018,0,0,0-2.46-1.4,2.042,2.042,0,0,0-1.4,2.46Z"/>
<path class="b" d="M360.756,206.384A56.468,56.468,0,0,0,380.287,232.1a2.016,2.016,0,0,0,2.737-.717,2.046,2.046,0,0,0-.718-2.737,54.619,54.619,0,0,1-17.693-23.327c-.877-2.4-4.745-1.362-3.857,1.063Z"/>
<path class="b" d="M352.1,201.112a16.65,16.65,0,0,0,2.438,8.572,14.754,14.754,0,0,0,6.143,5.969,2.047,2.047,0,0,0,2.736-.718,2.024,2.024,0,0,0-.718-2.736,9.883,9.883,0,0,1-1.458-.835c-.034-.024-.487-.367-.155-.1-.092-.074-.183-.148-.273-.224-.229-.193-.451-.4-.665-.6a14.348,14.348,0,0,1-1.235-1.373c.235.3-.131-.183-.141-.2-.074-.1-.146-.207-.218-.311q-.3-.435-.563-.887a17.4,17.4,0,0,1-.88-1.706c-.144-.32.161.426-.06-.141-.057-.149-.115-.3-.169-.447-.108-.3-.208-.6-.3-.9a18.623,18.623,0,0,1-.412-1.82c-.046-.235.018.282-.012-.1-.012-.15-.029-.3-.039-.451-.021-.327-.027-.653-.022-.981a2,2,0,0,0-4,0Z"/>
<path class="b" d="M415.179,243.526c3.171.4,6.522,1.387,8.921,3.6a11.113,11.113,0,0,1,3.458,8.826c-.138,3.284-1.716,6.224-2.971,9.19a45.535,45.535,0,0,0-3.275,9.884c-.617,3.577-.472,7.427,1.823,10.416l.313-2.423c-2.192,1.8-6.29.351-8.57-.5a15.708,15.708,0,0,1-7.532-5.718,27.929,27.929,0,0,1-4.485-10.036,17.152,17.152,0,0,1-.6-4.112,41.7,41.7,0,0,1,.722-6.248,2.06,2.06,0,0,0-1.4-2.46,2.015,2.015,0,0,0-2.46,1.4c-.554,3.363-1.127,6.727-.593,10.12a32.976,32.976,0,0,0,2.976,9.518,24.609,24.609,0,0,0,6.829,8.569,22.685,22.685,0,0,0,7.72,3.55c3.463.931,7.305,1.147,10.219-1.251a2,2,0,0,0,.313-2.424c-1.937-2.522-1.846-5.613-1.166-8.59a58.5,58.5,0,0,1,3.652-10.081c1.491-3.448,2.773-6.856,2.445-10.692a14.821,14.821,0,0,0-4.727-9.884c-3.243-2.9-7.382-4.107-11.614-4.646a2.01,2.01,0,0,0-2,2,2.051,2.051,0,0,0,2,2Z"/>
<path class="b" d="M414.714,211.318a4.013,4.013,0,0,1,1.248,1.109,9.571,9.571,0,0,1,1.2,2.3,22.561,22.561,0,0,1,1.241,7.017A36.773,36.773,0,0,1,414.2,239.86c-1.191,2.279,2.26,4.3,3.454,2.019a40.741,40.741,0,0,0,4.724-20.825c-.243-4.5-1.273-10.764-5.643-13.19-2.253-1.25-4.273,2.2-2.019,3.454Z"/>
<path class="b" d="M354.385,203.1c1.933-2.157,3.134-4.812,4.954-7.043a26.414,26.414,0,0,1,6.31-5.522,25.909,25.909,0,0,1,13.954-3.87c8.689-.078,18.109,2.4,25.077,7.744,3.288,2.52,5.968,5.849,6.79,9.979.5,2.523,4.359,1.455,3.857-1.063-1.83-9.187-10.894-14.874-19.082-17.808-9.562-3.426-21.235-4.452-30.5.347a31.2,31.2,0,0,0-8,6.008c-2.455,2.539-3.851,5.8-6.185,8.4-1.713,1.912,1.107,4.75,2.829,2.828Z"/>
<path class="b" d="M438.621,342.8c.831-3.625,1.908-7.279,2.475-10.955a5.931,5.931,0,0,0-.865-4.606,7.709,7.709,0,0,0-3.694-2.664,17.115,17.115,0,0,0-4.817-.631q-2.985-.185-5.971-.343-5.973-.317-11.95-.532-11.7-.421-23.417-.454-5.979-.017-11.958.07c-3.519.05-7.295-.21-10.742.642-3.731.921-6.048,3.631-7.169,7.207a71.2,71.2,0,0,0-2.137,11.9,2.01,2.01,0,0,0,2,2,2.051,2.051,0,0,0,2-2,87.476,87.476,0,0,1,1.69-9.745c.621-2.482,1.68-4.658,4.3-5.409,2.864-.82,6.112-.537,9.058-.584q5.356-.084,10.712-.086,21.306-.011,42.586,1.27c1.966.118,6.871-.165,6.491,3.04a47.916,47.916,0,0,1-1.105,4.942l-1.347,5.872c-.575,2.5,3.28,3.575,3.857,1.063Z"/>
<path class="a" d="M2,332.7l.023-15.3a5.54,5.54,0,0,1,.407-2.46,4.5,4.5,0,0,1,4.151-1.868c.43.048.861.116,1.282.187q24.726,4.136,49.031,10.41c2.215.572,4.592,1.263,5.985,3.078s1.445,4.322,1.363,6.622q-.129,3.6-.474,7.19Z"/>
<path class="a" d="M114.661,318.637c-1.942-11.866-11.874-23.951-22.36-29.3-.261-4.218-1.039-9.472-1.3-13.689a2.413,2.413,0,0,0-2.167-2.7l-22.781-7.305L54.358,261.9a2.03,2.03,0,0,0-1.6-.056,1.975,1.975,0,0,0-.641.737,75.536,75.536,0,0,0-6.5,13.547c-12.472,8.568-23.123,23.75-27.3,39q19.429,3.608,38.578,8.555c2.215.572,4.592,1.263,5.985,3.078s1.445,4.322,1.363,6.622q-.045,1.238-.114,2.474h49.7c.565-4.612,1.311-9.23,1.164-13.874A25.662,25.662,0,0,0,114.661,318.637Z"/>
<path class="a" d="M77.518,213.558c1.846-1.094,1.874-2.664,2.312-3.892,2.2-6.172,2.4-14.124,7.382-17.857,1.964-1.473,10.155-3.4,13.909-4.243l1.422,2.228a60.511,60.511,0,0,1,5.03,11.7c2.141,7.862,5.69,15.795,12.277,20.593a4.42,4.42,0,0,1,1.875,2.02c.511,1.661-1.149,3.085-2.277,4.408-3.122,3.662-2.2,8.661-1.606,13.689.38,3.228.624,6.467-.426,9.373-3.4,9.411-15.855,13.115-26.368,15.234-.72,2.165-3.571,6.607-3.562,5.709q-10.716-3.441-21.433-6.876L54.358,261.9A2.484,2.484,0,0,0,53,261.739a22.514,22.514,0,0,0,.217-2.4,11.084,11.084,0,0,0-2.541-4.913c10.718-7.857,12.561-9.841,18.236-20.931a20.273,20.273,0,0,1-2.032-4.171,11.1,11.1,0,0,1-.369-7.312c.833-2.344,3.126-4.283,5.608-4.1,1.87.139,3.476,1.383,4.987,2.431a28.152,28.152,0,0,1-.325-6.387"/>
<path class="g" d="M56.708,249.841c5.71-4.629,7.807-7.754,12.2-16.346a20.441,20.441,0,0,1-2.03-4.174,11.1,11.1,0,0,1-.369-7.312c.833-2.344,3.126-4.283,5.608-4.1,1.871.139,3.478,1.384,4.99,2.433a28.258,28.258,0,0,1-.328-6.426c2.581-1.08,2.558-2.879,3.048-4.252,2.2-6.172,2.4-14.124,7.382-17.857,2.052-1.539,11.688-2.986,15.166-3.785h0c-2.45-11.819-24.86-18.362-32.927-14.435-5.389.654-9.569,1.271-14.489,3.567s-10.005,6.249-12.706,12.287c0,0-.905,2.022-1.832,4.057-8.985,4.948-12.149,25.209-7.625,36.376,3.611,8.914,9.186,18.193,17.131,23.592"/>
<path class="b" d="M89.119,266.283c-.071.211-.152.418-.238.624l.2-.478a22.388,22.388,0,0,1-1.3,2.536,19.772,19.772,0,0,1-1.394,2.125l.313-.4c-.08.1-.163.2-.25.3a2.107,2.107,0,0,0-.586,1.415,2,2,0,0,0,3.415,1.414,17.219,17.219,0,0,0,2-2.9,19.813,19.813,0,0,0,1.7-3.57,2.014,2.014,0,0,0-1.4-2.46,2.048,2.048,0,0,0-2.46,1.4Z"/>
<path class="b" d="M77.579,218.24c-2.749-1.92-5.806-3.159-9.016-1.51a8.968,8.968,0,0,0-4.514,7.819c-.212,6.39,4.1,12.531,9.021,16.188a2.014,2.014,0,0,0,2.736-.718,2.047,2.047,0,0,0-.717-2.736,17.58,17.58,0,0,1-6.98-11.247c-.254-1.987.134-4.216,1.84-5.471,1.966-1.446,3.913-.058,5.612,1.128a2.017,2.017,0,0,0,2.736-.717,2.04,2.04,0,0,0-.718-2.736Z"/>
<path class="b" d="M67.186,232.483c-1.677,2.938-3.478,5.811-5.435,8.572a37,37,0,0,1-6.457,7.372,2.014,2.014,0,0,0,0,2.829,2.046,2.046,0,0,0,2.828,0,40.562,40.562,0,0,0,6.934-7.972A102.879,102.879,0,0,0,70.64,234.5c1.278-2.239-2.177-4.256-3.454-2.018Z"/>
<path class="b" d="M115.827,335.849a97.365,97.365,0,0,0,1.179-13.154,31.068,31.068,0,0,0-1.956-10.339,46.892,46.892,0,0,0-12.073-17.825,43.6,43.6,0,0,0-9.666-6.917c-2.284-1.18-4.31,2.271-2.019,3.454a42.5,42.5,0,0,1,14.661,12.806c3.774,5.2,6.771,11.406,7.031,17.924.188,4.708-.581,9.394-1.157,14.051a2.01,2.01,0,0,0,2,2,2.049,2.049,0,0,0,2-2Z"/>
<path class="b" d="M94.3,289.341c-.3-4.632-.918-9.243-1.313-13.868a4.731,4.731,0,0,0-1.111-3.057,6.8,6.8,0,0,0-2.986-1.545q-3.8-1.222-7.593-2.434l-15.415-4.943-7.718-2.475c-2.1-.674-5.185-2.32-7.08-.391a15.393,15.393,0,0,0-2.079,3.3q-1,1.791-1.908,3.634a82.483,82.483,0,0,0-3.412,8.029c-.886,2.421,2.978,3.465,3.857,1.063a72.576,72.576,0,0,1,3.009-7.073q.8-1.638,1.686-3.236c.524-.948,1.069-2.412,1.931-3.092l-.883.514c.674-.233,2.175.58,2.88.806l3.274,1.05,6.556,2.1,13.526,4.337,6.645,2.131c.553.178,1.108.354,1.661.533a3.2,3.2,0,0,1,1.036.355c.327.345.2,1.49.24,1.986.334,4.1.93,8.168,1.2,12.271.167,2.555,4.168,2.574,4,0Z"/>
<path class="b" d="M44.605,274.4c-13.4,9.276-23.479,23.869-28.016,39.472-.72,2.477,3.139,3.535,3.857,1.064,4.234-14.56,13.654-28.413,26.178-37.082,2.1-1.455.1-4.924-2.019-3.454Z"/>
<path class="b" d="M81.788,285.052A194.785,194.785,0,0,0,46.146,274.2c-2.516-.478-3.594,3.376-1.064,3.857a194.8,194.8,0,0,1,35.643,10.855,2.013,2.013,0,0,0,2.46-1.4,2.048,2.048,0,0,0-1.4-2.46Z"/>
<path class="b" d="M101.409,306.945c-7.426-1.02-14.252,2.731-19.194,8.062a67.062,67.062,0,0,0-12.047,18.91,2.066,2.066,0,0,0,.717,2.736,2.013,2.013,0,0,0,2.736-.718,65.7,65.7,0,0,1,10.7-17.3c3.944-4.479,9.715-8.7,16.022-7.83a2.07,2.07,0,0,0,2.46-1.4,2.014,2.014,0,0,0-1.4-2.46Z"/>
<path class="b" d="M99.082,213.62c-.214,1.87.9,5.875,4.307,5.6,4.413-.85,3.731-5.816,1.812-7.852C103.63,209.7,99.9,209.578,99.082,213.62Z"/>
<path class="b" d="M81.588,194.693a14.712,14.712,0,0,0-2.817,5.089,19.7,19.7,0,0,0-.617,4.581,25.034,25.034,0,0,1-.454,4.4,11.253,11.253,0,0,1-.721,2.3,1.352,1.352,0,0,1-.361.533,3.054,3.054,0,0,1-.845.6c-2.242,1.266-.228,4.722,2.019,3.454,3.41-1.925,4.056-6.1,4.283-9.691.2-3.229.2-5.759,2.342-8.433a2.061,2.061,0,0,0,0-2.828,2.014,2.014,0,0,0-2.829,0Z"/>
<path class="b" d="M38.623,192.258c-6.875,4.765-9.166,14.347-9.747,22.2A39.769,39.769,0,0,0,29.967,227.7a53.315,53.315,0,0,0,6.441,13.738A46.549,46.549,0,0,0,48.921,255.2l-.718-.718a31.628,31.628,0,0,1,2.123,2.89,5.43,5.43,0,0,1,.749,3.821,2.014,2.014,0,0,0,2,2,2.045,2.045,0,0,0,2-2,8.374,8.374,0,0,0-.71-4.723,16.608,16.608,0,0,0-2.194-3.351,14.969,14.969,0,0,0-2.682-2.451,36.221,36.221,0,0,1-3.2-2.926,54.391,54.391,0,0,1-9.709-14.275,34.014,34.014,0,0,1-3.744-13.048,42,42,0,0,1,1.424-13.873c1.1-3.94,2.966-8.459,6.386-10.83,2.1-1.456.1-4.925-2.019-3.453Z"/>
<path class="b" d="M44.161,190.064a24.3,24.3,0,0,1,12.624-11.548,36.707,36.707,0,0,1,8.54-2.361,45.5,45.5,0,0,0,4.657-.638,5.623,5.623,0,0,0,.753-.338c.485-.21-.4.13.117-.043.33-.11.659-.213,1-.294a7.413,7.413,0,0,1,1.805-.259,22.446,22.446,0,0,1,2.708,0,31.061,31.061,0,0,1,5.345.8,38.8,38.8,0,0,1,11.827,4.755c3.387,2.108,6.568,5.013,7.409,8.85.551,2.514,4.408,1.45,3.857-1.063-1.246-5.685-6.3-9.75-11.19-12.36a41.884,41.884,0,0,0-17.485-4.99,15.246,15.246,0,0,0-7.685,1.293l1.01-.273c-5.956.727-11.724,1.753-17.07,4.629a27.074,27.074,0,0,0-11.674,11.827c-1.115,2.308,2.333,4.339,3.454,2.019Z"/>
<path class="b" d="M100.816,190.8c2.983,4.768,4.3,10.155,6.11,15.4,2.315,6.693,5.854,13.057,11.6,17.38.311.234,1.23.716,1.284,1.12.067.491-.643,1.13-.932,1.457a13.952,13.952,0,0,0-2.819,4.279c-1.28,3.339-.79,7.06-.367,10.514.44,3.593,1.063,7.532-.551,10.931a15.545,15.545,0,0,1-5.186,5.95c-5.678,4-12.733,5.693-19.437,7.053-2.521.511-1.454,4.368,1.063,3.857,12-2.435,28.952-7.5,28.58-22.634-.1-3.953-1.163-7.874-.874-11.838a7.75,7.75,0,0,1,1.694-4.472c1.138-1.363,2.508-2.608,2.778-4.454.287-1.963-.84-3.437-2.324-4.56a27.551,27.551,0,0,1-3.927-3.511,32.409,32.409,0,0,1-5.592-9.153c-1.321-3.129-2.077-6.429-3.233-9.612a51.206,51.206,0,0,0-4.411-9.725c-1.363-2.177-4.825-.171-3.454,2.019Z"/>
<path class="b" d="M115.76,236.536a6.969,6.969,0,0,0-6.87,4.81,6.571,6.571,0,0,0,3.067,7.55,6.734,6.734,0,0,0,4.857.817,2.013,2.013,0,0,0,1.4-2.461,2.048,2.048,0,0,0-2.46-1.4c-.081.017-.162.033-.244.045.327-.041.382-.051.163-.031-.144,0-.286.009-.43,0-.061,0-.123-.006-.184-.011-.218-.023-.163-.014.167.025a1.739,1.739,0,0,0-.42-.091c-.14-.037-.274-.086-.412-.129q-.3-.115.135.062c-.076-.034-.15-.069-.224-.107-.11-.056-.219-.117-.325-.181-.061-.036-.357-.288-.413-.276.106-.023.352.3.02,0-.123-.11-.241-.227-.353-.349-.083-.09-.157-.192-.241-.282.392.416.042.034-.04-.1-.063-.1-.116-.217-.178-.323-.091-.193-.074-.146.05.143-.031-.076-.059-.153-.085-.23-.04-.117-.074-.235-.1-.354-.02-.08-.037-.16-.052-.241q-.052-.325.022.164c.041-.053-.015-.37-.013-.45,0-.065,0-.13.009-.194.021-.221.013-.172-.026.147.022-.014.2-.89.24-.866q-.182.417-.047.123c.038-.077.078-.154.12-.229.062-.114.13-.225.2-.333.048-.072.1-.143.149-.213q-.275.348-.07.1c.088-.1.173-.194.266-.287.036-.036.348-.368.385-.35q-.327.246-.147.114c.053-.038.106-.075.16-.111a5.142,5.142,0,0,1,.446-.266c.443-.234.009.015-.009-.015-.007-.013.782-.231.865-.25.218-.035.169-.029-.149.02.085-.008.171-.013.257-.015a4.52,4.52,0,0,1,.52.02,2.009,2.009,0,0,0,2-2,2.052,2.052,0,0,0-2-2Z"/>
<path class="b" d="M95.4,185.949c-1.544-.881-3.1-1.782-4.725-2.51a10.99,10.99,0,0,0-5.542-1.2,2.045,2.045,0,0,0-2,2,2.022,2.022,0,0,0,2,2,6.8,6.8,0,0,1,1.142-.023c.108.008.215.018.323.031-.263-.037-.28-.036-.049,0,.159.037.32.064.479.1a10.631,10.631,0,0,1,1.1.338c.08.029.741.3.3.107.179.077.357.158.534.241,1.512.708,2.971,1.543,4.42,2.37a2,2,0,1,0,2.019-3.454Z"/>
<path class="b" d="M88.291,188.036c-3.884-.231-8.028-.648-11.545,1.386a2,2,0,1,0,2.019,3.453c.2-.117.411-.219.616-.329.211-.095.21-.1,0-.008.08-.033.161-.064.242-.094a9.758,9.758,0,0,1,1.245-.365c.17-.038.34-.071.512-.1.114-.02.229-.039.345-.056-.243.032-.246.033-.01,0,.412-.036.822-.072,1.235-.087,1.781-.063,3.566.091,5.342.2a2.012,2.012,0,0,0,2-2,2.045,2.045,0,0,0-2-2Z"/>
<path class="b" d="M100.625,241.423a8.254,8.254,0,0,0,1.1,6.977,2.158,2.158,0,0,0,1.195.919,2.045,2.045,0,0,0,1.542-.2,2.017,2.017,0,0,0,.919-1.195,1.97,1.97,0,0,0-.2-1.541,6.426,6.426,0,0,1-.681-1.224l.2.478a6.68,6.68,0,0,1-.429-1.608l.071.532a6.658,6.658,0,0,1,0-1.663l-.071.532a6.563,6.563,0,0,1,.206-.942,2.02,2.02,0,0,0-1.4-2.46,2.041,2.041,0,0,0-2.461,1.4Z"/>
<path class="b" d="M4,332.7l.015-9.622.007-4.687c0-.888-.285-2.26.538-2.866a3.265,3.265,0,0,1,2.347-.4c1.587.2,3.168.533,4.743.809q4.556.8,9.1,1.668c12.18,2.335,24.4,4.905,36.358,8.2,2.69.741,4.8,1.824,5.1,4.854a52.2,52.2,0,0,1-.44,9.911,2.014,2.014,0,0,0,2,2,2.043,2.043,0,0,0,2-2,55.521,55.521,0,0,0,.44-9.911,8.719,8.719,0,0,0-4.161-7.2c-2.648-1.543-5.931-2.052-8.867-2.787q-5.2-1.3-10.413-2.5-10.2-2.349-20.479-4.329-5.137-.99-10.294-1.886c-2.916-.507-6.047-1.5-8.878-.178C-.37,313.4.024,317.116.019,320.367L0,332.7c0,2.574,4,2.578,4,0Z"/>
</g>
</svg>